<svg viewBox="0 0 44 44" xml:space="preserve" xmlns="http://www.w3.org/2000/svg" enable-background="new 0 0 44 44"><circle cx="4" cy="9" r="1" fill="#3d087b" class="fill-000000"></circle><circle cx="10" cy="7" r="1" fill="#3d087b" class="fill-000000"></circle><circle cx="6" cy="14" r="1" fill="#3d087b" class="fill-000000"></circle><circle cx="40" cy="33" r="1" fill="#3d087b" class="fill-000000"></circle><circle cx="4" cy="25" r="1" fill="#3d087b" class="fill-000000"></circle><path d="M37 21h-8a1 1 0 1 1 0-2h8a1 1 0 1 1 0 2zM25 21h-2a1 1 0 1 1 0-2h2a1 1 0 1 1 0 2zM39.5 8c-.456 0-.912.073-1.352.216a4.986 4.986 0 0 0-8.812 1.017A3.95 3.95 0 0 0 28 9c-2.206 0-4 1.794-4 4s1.794 4 4 4h11.5c2.481 0 4.5-2.019 4.5-4.5S41.981 8 39.5 8zm0 7h-1.056A3.959 3.959 0 0 0 39 13a1 1 0 1 0-2 0c0 1.103-.897 2-2 2h-7c-1.103 0-2-.897-2-2s.897-2 2-2c.492 0 .97.189 1.345.532a1 1 0 0 0 1.675-.686A2.99 2.99 0 0 1 34 8c1.228 0 2.317.739 2.778 1.883.109.271.332.48.609.574a.994.994 0 0 0 .832-.091A2.474 2.474 0 0 1 39.5 10c1.379 0 2.5 1.121 2.5 2.5S40.879 15 39.5 15z" fill="#3d087b" class="fill-000000"></path><path d="M40.41 22.655a1 1 0 0 0-1.188.284 12.161 12.161 0 0 1-9.503 4.553c-6.733 0-12.211-5.478-12.211-12.211 0-3.704 1.659-7.168 4.553-9.503a.999.999 0 0 0-.794-1.764A17.053 17.053 0 0 0 8.029 26.667a7.014 7.014 0 0 0-3.957 5.334L4 32c-2.206 0-4 1.794-4 4s1.794 4 4 4h14c1.81 0 3.432-.809 4.533-2.081a17 17 0 0 0 1.588.081c8.382 0 15.475-6 16.865-14.267a1 1 0 0 0-.576-1.078zM18 38H9c-1.103 0-2-.897-2-2a1 1 0 1 0-2 0c0 .732.212 1.409.556 2H4c-1.103 0-2-.897-2-2s.897-2 2-2c.211 0 .432.042.674.128a1 1 0 0 0 1.336-.973L6 33c0-2.757 2.243-5 5-5 1.598 0 3.112.778 4.052 2.081.599.824.948 1.824.948 2.919a1 1 0 1 0 2 0 6.937 6.937 0 0 0-.654-2.924c.218-.039.435-.076.654-.076 2.206 0 4 1.794 4 4s-1.794 4-4 4zm6.121-2c-.156 0-.308-.019-.463-.023.218-.62.342-1.284.342-1.977 0-3.309-2.691-6-6-6-.617 0-1.229.099-1.825.296A7.013 7.013 0 0 0 11 26c-.36 0-.711.034-1.056.086a15.054 15.054 0 0 1 8.243-19.108 14.137 14.137 0 0 0-2.68 8.304c0 7.836 6.375 14.211 14.211 14.211 3.025 0 5.912-.95 8.304-2.68A15.053 15.053 0 0 1 24.121 36z" fill="#3d087b" class="fill-000000"></path></svg>